<?xml version="1.0" encoding="UTF-8" standalone="no"?>
<svg width="375px" height="667px" viewBox="0 0 375 667" version="1.1" xmlns="http://www.w3.org/2000/svg" xmlns:xlink="http://www.w3.org/1999/xlink" style="background: #FCFCFC;">
    <!-- Generator: Sketch 3.8 (29681) - http://www.bohemiancoding.com/sketch -->
    <title>App</title>
    <desc>Created with Sketch.</desc>
    <defs>
        <rect id="path-1" x="0" y="0" width="375" height="64"></rect>
        <filter x="-50%" y="-50%" width="200%" height="200%" filterUnits="objectBoundingBox" id="filter-2">
            <feOffset dx="0" dy="0.5" in="SourceAlpha" result="shadowOffsetOuter1"></feOffset>
            <feGaussianBlur stdDeviation="2" in="shadowOffsetOuter1" result="shadowBlurOuter1"></feGaussianBlur>
            <feColorMatrix values="0 0 0 0 0.425090349   0 0 0 0 0.425090349   0 0 0 0 0.425090349  0 0 0 0.6 0" type="matrix" in="shadowBlurOuter1"></feColorMatrix>
        </filter>
        <rect id="path-3" x="0" y="0" width="375" height="49"></rect>
        <filter x="-50%" y="-50%" width="200%" height="200%" filterUnits="objectBoundingBox" id="filter-4">
            <feOffset dx="0" dy="0.5" in="SourceAlpha" result="shadowOffsetInner1"></feOffset>
            <feComposite in="shadowOffsetInner1" in2="SourceAlpha" operator="arithmetic" k2="-1" k3="1" result="shadowInnerInner1"></feComposite>
            <feColorMatrix values="0 0 0 0 0.698039216   0 0 0 0 0.698039216   0 0 0 0 0.698039216  0 0 0 1 0" type="matrix" in="shadowInnerInner1"></feColorMatrix>
        </filter>
    </defs>
    <g id="Page-1" stroke="none" stroke-width="1" fill="none" fill-rule="evenodd">
        <g id="App">
            <g id="Content1" transform="translate(10.000000, 75.000000)">
                <rect id="Panel1" fill="#C2FF01" x="0" y="0" width="355" height="149"></rect>
                <rect id="Panel2" fill="#00FF40" x="0" y="159" width="355" height="149"></rect>
                <rect id="Panel3" fill="#08AA67" x="0" y="318" width="355" height="149"></rect>
                <rect id="Panel4" fill="#1D7C80" x="0" y="477" width="355" height="149"></rect>
            </g>
            <g id="Content2" transform="translate(0.000000, 65.000000)">
                <g id="item1">
                    <rect id="base" fill="#F5F6F7" x="0" y="0" width="375" height="110"></rect>
                    <rect id="line" fill="#939BA6" x="0" y="109" width="375" height="1"></rect>
                    <circle id="Avatar" fill="#C1FE00" cx="51.5" cy="55.5" r="32.5"></circle>
                </g>
                <g id="item2" transform="translate(0.000000, 110.000000)">
                    <rect id="base" fill="#F5F6F7" x="0" y="0" width="375" height="110"></rect>
                    <rect id="line" fill="#939BA6" x="0" y="109" width="375" height="1"></rect>
                    <circle id="Avatar" fill="#00FF40" cx="51.5" cy="55.5" r="32.5"></circle>
                </g>
                <g id="item3" transform="translate(0.000000, 220.000000)">
                    <rect id="base" fill="#F5F6F7" x="0" y="0" width="375" height="110"></rect>
                    <rect id="line" fill="#939BA6" x="0" y="109" width="375" height="1"></rect>
                    <circle id="Avatar" fill="#1D7A80" cx="51.5" cy="55.5" r="32.5"></circle>
                </g>
                <g id="item4" transform="translate(0.000000, 330.000000)">
                    <rect id="base" fill="#F5F6F7" x="0" y="0" width="375" height="110"></rect>
                    <rect id="line" fill="#939BA6" x="0" y="109" width="375" height="1"></rect>
                    <circle id="Avatar" fill="#2C4765" cx="51.5" cy="55.5" r="32.5"></circle>
                </g>
                <g id="item5" transform="translate(0.000000, 440.000000)">
                    <rect id="base" fill="#F5F6F7" x="0" y="0" width="375" height="110"></rect>
                    <rect id="line" fill="#939BA6" x="0" y="109" width="375" height="1"></rect>
                    <circle id="Avatar" fill="#2D294C" cx="51.5" cy="55.5" r="32.5"></circle>
                </g>
                <g id="item6" transform="translate(0.000000, 550.000000)">
                    <rect id="base" fill="#F5F6F7" x="0" y="0" width="375" height="110"></rect>
                    <circle id="Avatar" fill="#C1FE00" cx="51.5" cy="55.5" r="32.5"></circle>
                </g>
            </g>
            <g id="NavigationBar">
                <g id="NavBarBase">
                    <use fill="black" fill-opacity="1" filter="url(#filter-2)" xlink:href="#path-1"></use>
                    <use fill="#FFFFFF" fill-rule="evenodd" xlink:href="#path-1"></use>
                </g>
                <text id="Title" font-family="HelveticaNeue, Helvetica Neue" font-size="17" font-weight="normal" letter-spacing="-0.409999996" fill="#211F26">
                    <tspan x="165.489" y="48.262001">Home</tspan>
                </text>
            </g>
            <g id="Content3" transform="translate(26.000000, 90.000000)">
                <circle id="Avatar" fill="#27262C" cx="162" cy="59" r="59"></circle>
                <rect id="Rectangle-18" fill="#99A1AB" x="65" y="156" width="194" height="14"></rect>
                <rect id="Rectangle-18-Copy" fill="#99A1AB" x="65" y="184" width="194" height="14"></rect>
                <rect id="Rectangle-18" fill="#99A1AB" x="0" y="244" width="324" height="14"></rect>
                <rect id="Rectangle-18-Copy" fill="#99A1AB" x="0" y="272" width="324" height="14"></rect>
                <rect id="Rectangle-18-Copy-3" fill="#99A1AB" x="0" y="300" width="324" height="14"></rect>
                <rect id="Rectangle-18-Copy-2" fill="#99A1AB" x="0" y="328" width="324" height="14"></rect>
                <rect id="Rectangle-18-Copy-5" fill="#99A1AB" x="0" y="356" width="324" height="14"></rect>
                <rect id="Rectangle-18-Copy-4" fill="#99A1AB" x="0" y="384" width="324" height="14"></rect>
                <rect id="Rectangle-18-Copy-7" fill="#99A1AB" x="0" y="412" width="324" height="14"></rect>
                <rect id="Rectangle-18-Copy-6" fill="#99A1AB" x="0" y="440" width="324" height="14"></rect>
                <rect id="Rectangle-18-Copy-9" fill="#99A1AB" x="0" y="468" width="324" height="14"></rect>
                <rect id="Rectangle-18-Copy-8" fill="#99A1AB" x="0" y="496" width="324" height="14"></rect>
            </g>
            <g id="BottomBar" transform="translate(0.000000, 618.000000)">
                <g id="Bar">
                    <use fill-opacity="0.9" fill="#FFFFFF" fill-rule="evenodd" xlink:href="#path-3"></use>
                    <use fill="black" fill-opacity="1" filter="url(#filter-4)" xlink:href="#path-3"></use>
                </g>
                <g id="menu-account" stroke-width="1" fill-rule="evenodd" transform="translate(291.000000, 7.000000)">
                    <text id="Account" font-family="HelveticaNeue, Helvetica Neue" font-size="10" font-weight="normal" letter-spacing="0.119999997" fill="#929292">
                        <tspan x="0.465000009" y="38.5">Account</tspan>
                    </text>
                    <path d="M32,21.7594697 L32,24.4318182 C32,24.744697 31.7554348,25 31.4565217,25 L7.54347826,25 C7.24456522,25 7,24.744697 7,24.4318182 L7,21.7594697 C7,20.5632576 7.21666667,20.0715909 8.08695652,19.5545455 C8.7865942,19.1382576 13.4865942,16.3151515 15.6956522,15.3231061 L15.6956522,11.042803 C15.0173913,10.5268939 14.6086957,9.72689394 14.6086957,8.50492424 L14.6086957,5.11363636 C14.6086957,2.30151515 16.2391304,0 19.5,0 C22.7608696,0 24.3913043,2.30151515 24.3913043,5.11363636 L24.3913043,8.50492424 C24.3913043,9.71439394 23.9826087,10.5125 23.3043478,11.0306818 L23.3043478,15.3231061 C25.6492754,16.3151515 30.2134058,19.1382576 30.9130435,19.5545455 C31.7833333,20.0715909 32,20.5632576 32,21.7594697" id="icon-account" fill="#929CA6"></path>
                </g>
                <g id="menu-favorite" stroke-width="1" fill-rule="evenodd" transform="translate(166.000000, 7.000000)">
                    <text id="Favorites" font-family="HelveticaNeue, Helvetica Neue" font-size="10" font-weight="normal" letter-spacing="0.119999997" fill="#929292">
                        <tspan x="0.500000012" y="38.5">Favorites</tspan>
                    </text>
                    <path d="M21.4450704,20.1785826 C19.8214789,18.1289672 18.1338028,16.3228134 16.6390845,14.7235826 C13.9454225,11.8447365 11.6408451,9.37935185 11.6408451,7.593198 C11.6408451,4.89781338 13.9373239,2.88435185 15.9922535,2.88435185 C17.2609155,2.88435185 18.3524648,3.63165954 19.2334507,5.10512108 L21.3792254,8.69435185 L23.615493,5.17165954 C24.5644366,3.67550569 25.740493,2.88435185 27.0137324,2.88435185 C29.0126761,2.88435185 31.2492958,4.89781338 31.2492958,7.593198 C31.2492958,9.37935185 28.9426056,11.8447365 26.2728873,14.6989672 C24.756338,16.3228134 23.0669014,18.1289672 21.4450704,20.1785826 M21.4450704,3.52781338 C17.2383803,-3.51026354 9,1.10281338 9,7.593198 C9,12.5985826 16.1633803,16.9097365 21.4450704,24.7974288 C26.7267606,16.9097365 33.8901408,12.5985826 33.8901408,7.593198 C33.8901408,1.10281338 25.9140845,-3.51026354 21.4450704,3.52781338" id="icon-favorite" fill="#929CA6"></path>
                </g>
                <g id="menu-home" stroke-width="1" fill-rule="evenodd" transform="translate(50.000000, 8.000000)">
                    <text id="Home" font-family="HelveticaNeue, Helvetica Neue" font-size="10" font-weight="normal" letter-spacing="0.119999997" fill="#2C7B80">
                        <tspan x="0.830000005" y="38.5">Home</tspan>
                    </text>
                    <polygon id="icon-home" fill="#08AA66" points="14.4982644 0.000249075928 2 13.2578491 5.97227518 13.2578491 5.97227518 25 11.9802538 25 11.9802538 18.5951904 16.9869026 18.5951904 16.9869026 25 22.9948812 25 22.9948812 13.2578491 27.0002003 13.2578491 20.9922217 6.9060571 20.9922217 0.448229924 17.9882324 0.448229924 17.9882324 3.73852294 14.4999332 0.0511317299"></polygon>
                </g>
            </g>
            <g id="StatusBar" fill="#030303">
                <path d="M346.493713,5.5 C345.668758,5.5 345,6.16802155 345,7.00530324 L345,13.4946968 C345,14.3260528 345.67338,15 346.493713,15 L366.006287,15 C366.831242,15 367.5,14.3319784 367.5,13.4946968 L367.5,7.00530324 C367.5,6.17394722 366.82662,5.5 366.006287,5.5 L346.493713,5.5 Z M368,8.5 L368,12 L368.75,12 C369.164214,12 369.5,11.6644053 369.5,11.25774 L369.5,9.24225998 C369.5,8.83232111 369.167101,8.5 368.75,8.5 L368,8.5 Z M346.508152,6 C345.951365,6 345.5,6.45699692 345.5,7.00844055 L345.5,13.4915594 C345.5,14.0485058 345.949058,14.5 346.508152,14.5 L365.991848,14.5 C366.548635,14.5 367,14.0430031 367,13.4915594 L367,7.00844055 C367,6.45149422 366.550942,6 365.991848,6 L346.508152,6 Z M346.506744,6.5 C346.226877,6.5 346,6.71637201 346,6.99209595 L346,13.5079041 C346,13.7796811 346.230225,14 346.506744,14 L365.993256,14 C366.273123,14 366.5,13.783628 366.5,13.5079041 L366.5,6.99209595 C366.5,6.72031886 366.269775,6.5 365.993256,6.5 L346.506744,6.5 Z" id="Battery"></path>
                <path d="M314.256,15 L314.256,6.492 L313.476,6.492 C313.42,6.8120016 313.316001,7.07599896 313.164,7.284 C313.011999,7.49200104 312.826001,7.6559994 312.606,7.776 C312.385999,7.8960006 312.140001,7.97799978 311.868,8.022 C311.595999,8.06600022 311.316001,8.088 311.028,8.088 L311.028,8.904 L313.236,8.904 L313.236,15 L314.256,15 Z M318.24,10.812 C318.24,10.603999 318.242,10.3740013 318.246,10.122 C318.25,9.86999874 318.27,9.61800126 318.306,9.366 C318.342,9.11399874 318.394,8.8680012 318.462,8.628 C318.53,8.3879988 318.629999,8.1780009 318.762,7.998 C318.894001,7.8179991 319.059999,7.67200056 319.26,7.56 C319.460001,7.44799944 319.703999,7.392 319.992,7.392 C320.280001,7.392 320.523999,7.44799944 320.724,7.56 C320.924001,7.67200056 321.089999,7.8179991 321.222,7.998 C321.354001,8.1780009 321.454,8.3879988 321.522,8.628 C321.59,8.8680012 321.642,9.11399874 321.678,9.366 C321.714,9.61800126 321.734,9.86999874 321.738,10.122 C321.742,10.3740013 321.744,10.603999 321.744,10.812 C321.744,11.1320016 321.734,11.489998 321.714,11.886 C321.694,12.282002 321.630001,12.6539983 321.522,13.002 C321.413999,13.3500017 321.240001,13.6439988 321,13.884 C320.759999,14.1240012 320.424002,14.244 319.992,14.244 C319.559998,14.244 319.224001,14.1240012 318.984,13.884 C318.743999,13.6439988 318.570001,13.3500017 318.462,13.002 C318.353999,12.6539983 318.29,12.282002 318.27,11.886 C318.25,11.489998 318.24,11.1320016 318.24,10.812 L318.24,10.812 Z M317.16,10.824 C317.16,11.1360016 317.168,11.4599983 317.184,11.796 C317.2,12.1320017 317.24,12.4599984 317.304,12.78 C317.368,13.1000016 317.459999,13.4019986 317.58,13.686 C317.700001,13.9700014 317.863999,14.2199989 318.072,14.436 C318.280001,14.6520011 318.541998,14.8219994 318.858,14.946 C319.174002,15.0700006 319.551998,15.132 319.992,15.132 C320.440002,15.132 320.819998,15.0700006 321.132,14.946 C321.444002,14.8219994 321.703999,14.6520011 321.912,14.436 C322.120001,14.2199989 322.283999,13.9700014 322.404,13.686 C322.524001,13.4019986 322.616,13.1000016 322.68,12.78 C322.744,12.4599984 322.784,12.1320017 322.8,11.796 C322.816,11.4599983 322.824,11.1360016 322.824,10.824 C322.824,10.5119984 322.816,10.1880017 322.8,9.852 C322.784,9.51599832 322.744,9.1880016 322.68,8.868 C322.616,8.5479984 322.524001,8.24400144 322.404,7.956 C322.283999,7.66799856 322.120001,7.41600108 321.912,7.2 C321.703999,6.98399892 321.442002,6.81200064 321.126,6.684 C320.809998,6.55599936 320.432002,6.492 319.992,6.492 C319.551998,6.492 319.174002,6.55599936 318.858,6.684 C318.541998,6.81200064 318.280001,6.98399892 318.072,7.2 C317.863999,7.41600108 317.700001,7.66799856 317.58,7.956 C317.459999,8.24400144 317.368,8.5479984 317.304,8.868 C317.24,9.1880016 317.2,9.51599832 317.184,9.852 C317.168,10.1880017 317.16,10.5119984 317.16,10.824 L317.16,10.824 Z M324.912,10.812 C324.912,10.603999 324.914,10.3740013 324.918,10.122 C324.922,9.86999874 324.942,9.61800126 324.978,9.366 C325.014,9.11399874 325.066,8.8680012 325.134,8.628 C325.202,8.3879988 325.301999,8.1780009 325.434,7.998 C325.566001,7.8179991 325.731999,7.67200056 325.932,7.56 C326.132001,7.44799944 326.375999,7.392 326.664,7.392 C326.952001,7.392 327.195999,7.44799944 327.396,7.56 C327.596001,7.67200056 327.761999,7.8179991 327.894,7.998 C328.026001,8.1780009 328.126,8.3879988 328.194,8.628 C328.262,8.8680012 328.314,9.11399874 328.35,9.366 C328.386,9.61800126 328.406,9.86999874 328.41,10.122 C328.414,10.3740013 328.416,10.603999 328.416,10.812 C328.416,11.1320016 328.406,11.489998 328.386,11.886 C328.366,12.282002 328.302001,12.6539983 328.194,13.002 C328.085999,13.3500017 327.912001,13.6439988 327.672,13.884 C327.431999,14.1240012 327.096002,14.244 326.664,14.244 C326.231998,14.244 325.896001,14.1240012 325.656,13.884 C325.415999,13.6439988 325.242001,13.3500017 325.134,13.002 C325.025999,12.6539983 324.962,12.282002 324.942,11.886 C324.922,11.489998 324.912,11.1320016 324.912,10.812 L324.912,10.812 Z M323.832,10.824 C323.832,11.1360016 323.84,11.4599983 323.856,11.796 C323.872,12.1320017 323.912,12.4599984 323.976,12.78 C324.04,13.1000016 324.131999,13.4019986 324.252,13.686 C324.372001,13.9700014 324.535999,14.2199989 324.744,14.436 C324.952001,14.6520011 325.213998,14.8219994 325.53,14.946 C325.846002,15.0700006 326.223998,15.132 326.664,15.132 C327.112002,15.132 327.491998,15.0700006 327.804,14.946 C328.116002,14.8219994 328.375999,14.6520011 328.584,14.436 C328.792001,14.2199989 328.955999,13.9700014 329.076,13.686 C329.196001,13.4019986 329.288,13.1000016 329.352,12.78 C329.416,12.4599984 329.456,12.1320017 329.472,11.796 C329.488,11.4599983 329.496,11.1360016 329.496,10.824 C329.496,10.5119984 329.488,10.1880017 329.472,9.852 C329.456,9.51599832 329.416,9.1880016 329.352,8.868 C329.288,8.5479984 329.196001,8.24400144 329.076,7.956 C328.955999,7.66799856 328.792001,7.41600108 328.584,7.2 C328.375999,6.98399892 328.114002,6.81200064 327.798,6.684 C327.481998,6.55599936 327.104002,6.492 326.664,6.492 C326.223998,6.492 325.846002,6.55599936 325.53,6.684 C325.213998,6.81200064 324.952001,6.98399892 324.744,7.2 C324.535999,7.41600108 324.372001,7.66799856 324.252,7.956 C324.131999,8.24400144 324.04,8.5479984 323.976,8.868 C323.912,9.1880016 323.872,9.51599832 323.856,9.852 C323.84,10.1880017 323.832,10.5119984 323.832,10.824 L323.832,10.824 Z M332.004,8.904 C332.004,8.71999908 332.016,8.52600102 332.04,8.322 C332.064,8.11799898 332.114,7.93000086 332.19,7.758 C332.266,7.58599914 332.371999,7.44200058 332.508,7.326 C332.644001,7.20999942 332.823999,7.152 333.048,7.152 C333.280001,7.152 333.461999,7.20999942 333.594,7.326 C333.726001,7.44200058 333.828,7.58599914 333.9,7.758 C333.972,7.93000086 334.018,8.11799898 334.038,8.322 C334.058,8.52600102 334.068,8.71599912 334.068,8.892 C334.068,9.07600092 334.056,9.27199896 334.032,9.48 C334.008,9.68800104 333.958,9.87799914 333.882,10.05 C333.806,10.2220009 333.700001,10.3639994 333.564,10.476 C333.427999,10.5880006 333.244001,10.644 333.012,10.644 C332.787999,10.644 332.610001,10.5860006 332.478,10.47 C332.345999,10.3539994 332.244,10.2100009 332.172,10.038 C332.1,9.86599914 332.054,9.67800102 332.034,9.474 C332.014,9.26999898 332.004,9.08000088 332.004,8.904 L332.004,8.904 Z M331.104,8.928 C331.104,9.25600164 331.138,9.56399856 331.206,9.852 C331.274,10.1400014 331.383999,10.3919989 331.536,10.608 C331.688001,10.8240011 331.887999,10.9939994 332.136,11.118 C332.384001,11.2420006 332.687998,11.304 333.048,11.304 C333.400002,11.304 333.695999,11.2360007 333.936,11.1 C334.176001,10.9639993 334.373999,10.7860011 334.53,10.566 C334.686001,10.3459989 334.798,10.0900015 334.866,9.798 C334.934,9.50599854 334.968,9.20400156 334.968,8.892 C334.968,8.56399836 334.938,8.25400146 334.878,7.962 C334.818,7.66999854 334.714001,7.41600108 334.566,7.2 C334.417999,6.98399892 334.222001,6.81200064 333.978,6.684 C333.733999,6.55599936 333.424002,6.492 333.048,6.492 C332.679998,6.492 332.372001,6.55799934 332.124,6.69 C331.875999,6.82200066 331.676001,6.99999888 331.524,7.224 C331.371999,7.44800112 331.264,7.70599854 331.2,7.998 C331.136,8.29000146 331.104,8.59999836 331.104,8.928 L331.104,8.928 Z M337.932,12.744 C337.932,12.5599991 337.944,12.366001 337.968,12.162 C337.992,11.957999 338.042,11.7700009 338.118,11.598 C338.194,11.4259991 338.299999,11.2820006 338.436,11.166 C338.572001,11.0499994 338.751999,10.992 338.976,10.992 C339.208001,10.992 339.389999,11.0499994 339.522,11.166 C339.654001,11.2820006 339.756,11.4259991 339.828,11.598 C339.9,11.7700009 339.946,11.957999 339.966,12.162 C339.986,12.366001 339.996,12.5559991 339.996,12.732 C339.996,12.9160009 339.984,13.111999 339.96,13.32 C339.936,13.528001 339.886,13.7179991 339.81,13.89 C339.734,14.0620009 339.628001,14.2039994 339.492,14.316 C339.355999,14.4280006 339.172001,14.484 338.94,14.484 C338.715999,14.484 338.538001,14.4260006 338.406,14.31 C338.273999,14.1939994 338.172,14.0500009 338.1,13.878 C338.028,13.7059991 337.982,13.518001 337.962,13.314 C337.942,13.109999 337.932,12.9200009 337.932,12.744 L337.932,12.744 Z M337.032,12.768 C337.032,13.0960016 337.066,13.4039986 337.134,13.692 C337.202,13.9800014 337.311999,14.2299989 337.464,14.442 C337.616001,14.6540011 337.815999,14.8219994 338.064,14.946 C338.312001,15.0700006 338.615998,15.132 338.976,15.132 C339.328002,15.132 339.623999,15.0660007 339.864,14.934 C340.104001,14.8019993 340.301999,14.6260011 340.458,14.406 C340.614001,14.1859989 340.726,13.9300015 340.794,13.638 C340.862,13.3459985 340.896,13.0440016 340.896,12.732 C340.896,12.4039984 340.866,12.0940015 340.806,11.802 C340.746,11.5099985 340.642001,11.2560011 340.494,11.04 C340.345999,10.8239989 340.150001,10.6520006 339.906,10.524 C339.661999,10.3959994 339.352002,10.332 338.976,10.332 C338.607998,10.332 338.300001,10.3979993 338.052,10.53 C337.803999,10.6620007 337.604001,10.8399989 337.452,11.064 C337.299999,11.2880011 337.192,11.5459985 337.128,11.838 C337.064,12.1300015 337.032,12.4399984 337.032,12.768 L337.032,12.768 Z M338.712,6.336 L332.256,15.252 L333.288,15.252 L339.732,6.336 L338.712,6.336 Z" id="100%"></path>
                <path d="M166.65,12.948 L165.63,12.948 C165.694,13.6840037 165.961998,14.2319982 166.434,14.592 C166.906002,14.9520018 167.497996,15.132 168.21,15.132 C169.242005,15.132 169.991998,14.7380039 170.46,13.95 C170.928002,13.1619961 171.162,12.0320074 171.162,10.56 C171.162,9.75199596 171.084001,9.08600262 170.928,8.562 C170.771999,8.03799738 170.562001,7.62400152 170.298,7.32 C170.033999,7.01599848 169.726002,6.80200062 169.374,6.678 C169.021998,6.55399938 168.646002,6.492 168.246,6.492 C167.837998,6.492 167.462002,6.55999932 167.118,6.696 C166.773998,6.83200068 166.478001,7.02199878 166.23,7.266 C165.981999,7.51000122 165.790001,7.8019983 165.654,8.142 C165.517999,8.4820017 165.45,8.85599796 165.45,9.264 C165.45,9.68000208 165.507999,10.0639982 165.624,10.416 C165.740001,10.7680018 165.911999,11.0679988 166.14,11.316 C166.368001,11.5640012 166.649998,11.7579993 166.986,11.898 C167.322002,12.0380007 167.705998,12.108 168.138,12.108 C168.554002,12.108 168.937998,12.0020011 169.29,11.79 C169.642002,11.5779989 169.913999,11.2920018 170.106,10.932 L170.13,10.956 C170.098,12.0680056 169.926002,12.8939973 169.614,13.434 C169.301998,13.9740027 168.834003,14.244 168.21,14.244 C167.801998,14.244 167.450001,14.1320011 167.154,13.908 C166.857999,13.6839989 166.69,13.3640021 166.65,12.948 L166.65,12.948 Z M169.95,9.336 C169.95,9.58400124 169.91,9.82199886 169.83,10.05 C169.75,10.2780011 169.634001,10.4779991 169.482,10.65 C169.329999,10.8220009 169.146001,10.9579995 168.93,11.058 C168.713999,11.1580005 168.474001,11.208 168.21,11.208 C167.961999,11.208 167.736001,11.1580005 167.532,11.058 C167.327999,10.9579995 167.152001,10.8240008 167.004,10.656 C166.855999,10.4879992 166.74,10.2960011 166.656,10.08 C166.572,9.86399892 166.53,9.64000116 166.53,9.408 C166.53,9.14399868 166.56,8.8920012 166.62,8.652 C166.68,8.4119988 166.775999,8.19800094 166.908,8.01 C167.040001,7.82199906 167.211999,7.67200056 167.424,7.56 C167.636001,7.44799944 167.893998,7.392 168.198,7.392 C168.486001,7.392 168.737999,7.44399948 168.954,7.548 C169.170001,7.65200052 169.351999,7.7939991 169.5,7.974 C169.648001,8.1540009 169.76,8.35999884 169.836,8.592 C169.912,8.82400116 169.95,9.07199868 169.95,9.336 L169.95,9.336 Z M174.042,10.128 L174.042,8.796 L172.71,8.796 L172.71,10.128 L174.042,10.128 Z M172.71,13.668 L172.71,15 L174.042,15 L174.042,13.668 L172.71,13.668 Z M179.118,12.108 L176.262,12.108 L179.094,7.944 L179.118,7.944 L179.118,12.108 Z M180.078,12.108 L180.078,6.492 L179.262,6.492 L175.386,12.024 L175.386,13.008 L179.118,13.008 L179.118,15 L180.078,15 L180.078,13.008 L181.23,13.008 L181.23,12.108 L180.078,12.108 Z M185.994,15 L185.994,6.492 L185.214,6.492 C185.158,6.8120016 185.054001,7.07599896 184.902,7.284 C184.749999,7.49200104 184.564001,7.6559994 184.344,7.776 C184.123999,7.8960006 183.878001,7.97799978 183.606,8.022 C183.333999,8.06600022 183.054001,8.088 182.766,8.088 L182.766,8.904 L184.974,8.904 L184.974,15 L185.994,15 Z M194.142,11.46 L195.594,7.464 L195.618,7.464 L197.046,11.46 L194.142,11.46 Z M194.994,6.432 L191.658,15 L192.822,15 L193.782,12.42 L197.406,12.42 L198.342,15 L199.602,15 L196.254,6.432 L194.994,6.432 Z M200.466,6.432 L200.466,15 L201.546,15 L201.546,7.872 L201.57,7.872 L204.246,15 L205.218,15 L207.894,7.872 L207.918,7.872 L207.918,15 L208.998,15 L208.998,6.432 L207.438,6.432 L204.726,13.632 L202.026,6.432 L200.466,6.432 Z" id="9:41-AM"></path>
                <path d="M96.1444208,12.4385043 C95.626374,11.8454456 94.8523616,11.4689119 93.987563,11.4689119 C93.1390073,11.4689119 92.3778594,11.8314341 91.8601652,12.4053177 L94.0225391,14.5 L96.1444208,12.4385043 Z M98.3234964,10.3214425 C97.2447794,9.19174563 95.7014387,8.48445596 93.987563,8.48445596 C92.2882723,8.48445596 90.7566264,9.17975893 89.6792698,10.2926936 L90.7692987,11.3486 C91.567205,10.5053708 92.713648,9.97668394 93.987563,9.97668394 C95.2768836,9.97668394 96.4356305,10.518235 97.2346215,11.3793293 L98.3234964,10.3214425 L98.3234964,10.3214425 Z M100.5,8.20687933 C98.8629578,6.53943672 96.5505699,5.5 93.987563,5.5 C91.4375103,5.5 89.1355496,6.52895605 87.5,8.18164431 L88.5895579,9.23709441 C89.9460798,7.85431655 91.8628921,6.99222798 93.987563,6.99222798 C96.1260026,6.99222798 98.0538809,7.86552609 99.4118698,9.26404272 L100.5,8.20687933 Z" id="Wi-Fi"></path>
                <path d="M49.892,8.94 L50.972,8.94 C50.9559999,8.46799764 50.8660008,8.0620017 50.702,7.722 C50.5379992,7.3819983 50.3140014,7.10000112 50.03,6.876 C49.7459986,6.65199888 49.4160019,6.48800052 49.04,6.384 C48.6639981,6.27999948 48.2560022,6.228 47.816,6.228 C47.423998,6.228 47.0420019,6.2779995 46.67,6.378 C46.2979981,6.4780005 45.9660015,6.62999898 45.674,6.834 C45.3819985,7.03800102 45.1480009,7.29799842 44.972,7.614 C44.7959991,7.93000158 44.708,8.30399784 44.708,8.736 C44.708,9.12800196 44.7859992,9.4539987 44.942,9.714 C45.0980008,9.9740013 45.3059987,10.1859992 45.566,10.35 C45.8260013,10.5140008 46.1199984,10.6459995 46.448,10.746 C46.7760016,10.8460005 47.1099983,10.9339996 47.45,11.01 C47.7900017,11.0860004 48.1239984,11.1599996 48.452,11.232 C48.7800016,11.3040004 49.0739987,11.3979994 49.334,11.514 C49.5940013,11.6300006 49.8019992,11.7799991 49.958,11.964 C50.1140008,12.1480009 50.192,12.3879985 50.192,12.684 C50.192,12.9960016 50.1280006,13.251999 50,13.452 C49.8719994,13.652001 49.704001,13.8099994 49.496,13.926 C49.287999,14.0420006 49.0540013,14.1239998 48.794,14.172 C48.5339987,14.2200002 48.2760013,14.244 48.02,14.244 C47.6999984,14.244 47.3880015,14.2040004 47.084,14.124 C46.7799985,14.0439996 46.5140011,13.9200008 46.286,13.752 C46.0579989,13.5839992 45.8740007,13.3700013 45.734,13.11 C45.5939993,12.8499987 45.524,12.5400018 45.524,12.18 L44.444,12.18 C44.444,12.7000026 44.5379991,13.1499981 44.726,13.53 C44.9140009,13.9100019 45.1699984,14.2219988 45.494,14.466 C45.8180016,14.7100012 46.1939979,14.8919994 46.622,15.012 C47.0500021,15.1320006 47.5039976,15.192 47.984,15.192 C48.376002,15.192 48.769998,15.1460005 49.166,15.054 C49.562002,14.9619995 49.9199984,14.814001 50.24,14.61 C50.5600016,14.405999 50.821999,14.1420016 51.026,13.818 C51.230001,13.4939984 51.332,13.1040023 51.332,12.648 C51.332,12.2239979 51.2540008,11.8720014 51.098,11.592 C50.9419992,11.3119986 50.7340013,11.0800009 50.474,10.896 C50.2139987,10.7119991 49.9200016,10.5660005 49.592,10.458 C49.2639984,10.3499995 48.9300017,10.2560004 48.59,10.176 C48.2499983,10.0959996 47.9160016,10.0220003 47.588,9.954 C47.2599984,9.88599966 46.9660013,9.80000052 46.706,9.696 C46.4459987,9.59199948 46.2380008,9.45800082 46.082,9.294 C45.9259992,9.12999918 45.848,8.91600132 45.848,8.652 C45.848,8.3719986 45.9019995,8.13800094 46.01,7.95 C46.1180005,7.76199906 46.2619991,7.61200056 46.442,7.5 C46.6220009,7.38799944 46.8279988,7.30800024 47.06,7.26 C47.2920012,7.21199976 47.5279988,7.188 47.768,7.188 C48.360003,7.188 48.8459981,7.32599862 49.226,7.602 C49.6060019,7.87800138 49.8279997,8.32399692 49.892,8.94 L49.892,8.94 Z M56.084,15 L59.132,6.432 L57.944,6.432 L55.472,13.86 L55.448,13.86 L53,6.432 L51.776,6.432 L54.788,15 L56.084,15 Z M66.452,13.932 L66.752,15 L67.472,15 L67.472,10.488 L63.716,10.488 L63.716,11.448 L66.452,11.448 C66.4680001,11.840002 66.4160006,12.2059983 66.296,12.546 C66.1759994,12.8860017 65.9980012,13.1819987 65.762,13.434 C65.5259988,13.6860013 65.2360017,13.8839993 64.892,14.028 C64.5479983,14.1720007 64.1520022,14.244 63.704,14.244 C63.2239976,14.244 62.8020018,14.1500009 62.438,13.962 C62.0739982,13.7739991 61.7680012,13.5220016 61.52,13.206 C61.2719988,12.8899984 61.0840006,12.5260021 60.956,12.114 C60.8279994,11.7019979 60.764,11.2720022 60.764,10.824 C60.764,10.3679977 60.8199994,9.92200218 60.932,9.486 C61.0440006,9.04999782 61.2179988,8.6620017 61.454,8.322 C61.6900012,7.9819983 61.9939981,7.70800104 62.366,7.5 C62.7380019,7.29199896 63.1839974,7.188 63.704,7.188 C64.0240016,7.188 64.3259986,7.22599962 64.61,7.302 C64.8940014,7.37800038 65.1479989,7.49199924 65.372,7.644 C65.5960011,7.79600076 65.7839992,7.98999882 65.936,8.226 C66.0880008,8.46200118 66.1919997,8.74399836 66.248,9.072 L67.388,9.072 C67.3079996,8.56799748 67.1580011,8.13800178 66.938,7.782 C66.7179989,7.42599822 66.4460016,7.13200116 66.122,6.9 C65.7979984,6.66799884 65.4300021,6.49800054 65.018,6.39 C64.6059979,6.28199946 64.1680023,6.228 63.704,6.228 C63.0239966,6.228 62.4300025,6.35399874 61.922,6.606 C61.4139975,6.85800126 60.9900017,7.19599788 60.65,7.62 C60.3099983,8.04400212 60.0540009,8.53799718 59.882,9.102 C59.7099991,9.66600282 59.624,10.2599969 59.624,10.884 C59.624,11.4440028 59.7159991,11.9839974 59.9,12.504 C60.0840009,13.0240026 60.3519982,13.483998 60.704,13.884 C61.0560018,14.284002 61.4839975,14.6019988 61.988,14.838 C62.4920025,15.0740012 63.0639968,15.192 63.704,15.192 C64.2080025,15.192 64.7079975,15.094001 65.204,14.898 C65.7000025,14.701999 66.1159983,14.3800022 66.452,13.932 L66.452,13.932 Z" id="Carrier"></path>
                <path d="M9.25,13 C10.7687831,13 12,11.7687831 12,10.25 C12,8.73121694 10.7687831,7.5 9.25,7.5 C7.73121694,7.5 6.5,8.73121694 6.5,10.25 C6.5,11.7687831 7.73121694,13 9.25,13 Z M16.25,13 C17.7687831,13 19,11.7687831 19,10.25 C19,8.73121694 17.7687831,7.5 16.25,7.5 C14.7312169,7.5 13.5,8.73121694 13.5,10.25 C13.5,11.7687831 14.7312169,13 16.25,13 Z M23.25,13 C24.7687831,13 26,11.7687831 26,10.25 C26,8.73121694 24.7687831,7.5 23.25,7.5 C21.7312169,7.5 20.5,8.73121694 20.5,10.25 C20.5,11.7687831 21.7312169,13 23.25,13 Z M30.25,13 C31.7687831,13 33,11.7687831 33,10.25 C33,8.73121694 31.7687831,7.5 30.25,7.5 C28.7312169,7.5 27.5,8.73121694 27.5,10.25 C27.5,11.7687831 28.7312169,13 30.25,13 Z M37.25,13 C38.7687831,13 40,11.7687831 40,10.25 C40,8.73121694 38.7687831,7.5 37.25,7.5 C35.7312169,7.5 34.5,8.73121694 34.5,10.25 C34.5,11.7687831 35.7312169,13 37.25,13 Z" id="Mobile-Signal"></path>
            </g>
        </g>
    </g>
</svg>